<?xml version="1.0" ?><svg xmlns="http://www.w3.org/2000/svg" xmlns:xlink="http://www.w3.org/1999/xlink" version="1.1" viewBox="0 0 512 512" style="enable-background:new 0 0 512 512;" xml:space="preserve"><g id="_x34_5_x2C__Air_Hockey_x2C__Hockey_x2C__Air_x2C__Air_Hockey_x2C__Board_Game_x2C__Childhood_x2C__Gaming_x2C__Entertainment_x2C_"><g><path style="fill:#FFFFFF;" d="M441.76,41.12v429.76c0,16.63-13.49,30.12-30.13,30.12H100.37c-16.64,0-30.13-13.49-30.13-30.12    V41.12C70.24,24.49,83.73,11,100.37,11h311.26C428.27,11,441.76,24.49,441.76,41.12z"/><polygon style="fill:#9DCAFC;" points="321.27,51 256,67 190.73,51 111,51 111,256 253.8,275 401,256 401,51   "/><polygon style="fill:#FFFFFF;" points="111,256 111,461 190.73,461 251,444.6 321.27,461 401,461 401,256   "/><circle style="fill:#FFFFFF;" cx="331" cy="361" r="20"/><path style="fill:#FFFFFF;" d="M251,301c0,11.05-8.95,20-20,20s-20-8.95-20-20c0-7.17,3.77-13.46,9.45-16.98    c3.06-1.92,6.68-3.02,10.55-3.02C242.05,281,251,289.95,251,301z"/><circle style="fill:#FFFFFF;" cx="191" cy="151" r="20"/><path style="fill:#FFFFFF;" d="M256,210.73c25,0,45.27,20.27,45.27,45.27S281,301.27,256,301.27c-1.69,0-3.36-0.09-5-0.27    c0-11.05-8.95-20-20-20c-3.87,0-7.49,1.1-10.55,3.02c-6.09-7.71-9.72-17.44-9.72-28.02C210.73,231,231,210.73,256,210.73z"/><rect x="190.73" y="420.16" style="fill:#FFFFFF;" width="130.54" height="40.84"/><rect x="190.73" y="51" style="fill:#FFFFFF;" width="130.54" height="40"/><g><path style="fill:#4269A7;" d="M411.633,1H100.367C78.244,1,60.245,18.999,60.245,41.122v429.756     c0,22.123,17.999,40.122,40.122,40.122h311.266c22.123,0,40.122-17.999,40.122-40.122V41.122C451.755,18.999,433.756,1,411.633,1     z M431.755,470.878c0,11.096-9.026,20.122-20.122,20.122H100.367c-11.096,0-20.122-9.026-20.122-20.122V41.122     C80.245,30.026,89.271,21,100.367,21h311.266c11.096,0,20.122,9.026,20.122,20.122V470.878z"/><path style="fill:#4269A7;" d="M401,41c-15.354,0-277.68,0-290,0c-5.522,0-10,4.478-10,10v410c0,5.522,4.478,10,10,10     c13.51,0,274.893,0,290,0c5.522,0,10-4.478,10-10V51C411,45.478,406.522,41,401,41z M311.266,61v20H200.734V61H311.266z      M180.734,61v30c0,5.522,4.478,10,10,10h130.531c5.522,0,10-4.478,10-10V61H391v185h-80.653     c-4.722-25.716-27.286-45.27-54.347-45.27c-27.06,0-49.625,19.553-54.346,45.27H121V61H180.734z M259.318,291.111     c-4.925-14.061-19.707-22.788-34.894-19.376c-11.308-22.39,4.561-51.005,31.576-51.005c19.448,0,35.271,15.822,35.271,35.27     C291.271,274.442,277.094,289.44,259.318,291.111z M231,291c5.514,0,10,4.486,10,10s-4.486,10-10,10s-10-4.486-10-10     S225.486,291,231,291z M200.734,451v-20.837h110.531V451H200.734z M331.266,451v-30.837c0-5.522-4.478-10-10-10H190.734     c-5.522,0-10,4.478-10,10V451H121V266h80.633c1.047,5.772,2.996,11.303,5.817,16.448C192.001,302.017,206.001,331,231,331     c12.969,0,24.04-8.273,28.218-19.818c25.446-1.46,46.58-20.371,51.129-45.182H391v185H331.266z"/><path style="fill:#4269A7;" d="M191,181c16.542,0,30-13.458,30-30s-13.458-30-30-30s-30,13.458-30,30S174.458,181,191,181z      M191,141c5.514,0,10,4.486,10,10s-4.486,10-10,10s-10-4.486-10-10S185.486,141,191,141z"/><path style="fill:#4269A7;" d="M331,331c-16.542,0-30,13.458-30,30s13.458,30,30,30s30-13.458,30-30S347.542,331,331,331z      M331,371c-5.514,0-10-4.486-10-10s4.486-10,10-10s10,4.486,10,10S336.514,371,331,371z"/></g></g></g><g id="Layer_1"/></svg>