<?xml version="1.0" ?><svg xmlns="http://www.w3.org/2000/svg" id="Layer_1" data-name="Layer 1" viewBox="0 0 64 64"><defs><style>
      .cls-1 {
        fill: #e84652;
      }
    </style></defs><path class="cls-1" d="M48.22,59H15.78c-1.69,0-3.07-1.38-3.07-3.07V8.07c0-1.69,1.38-3.07,3.07-3.07h28.61c.9,0,1.77,.38,2.38,1.04l3.63,3.9c.56,.6,.87,1.39,.87,2.22V55.93c0,1.69-1.38,3.07-3.07,3.07ZM15.78,6.93c-.63,0-1.14,.51-1.14,1.14V55.93c0,.63,.51,1.14,1.14,1.14H48.22c.63,0,1.14-.51,1.14-1.14V12.16c0-.34-.13-.66-.36-.9l-3.63-3.9c-.25-.27-.6-.42-.97-.42H15.78Z"/><circle class="cls-1" cx="24.29" cy="32" r="4.82"/><path class="cls-1" d="M29.11,46.46c0,2.66-2.16,4.82-4.82,4.82s-4.82-2.16-4.82-4.82,2.16-4.82,4.82-4.82c1.65,0,3.1,.83,3.97,2.08l-3.23,2.65-.97-1.7c-.27-.46-.86-.62-1.32-.36-.46,.27-.62,.86-.35,1.32l1.54,2.68c.14,.24,.39,.41,.67,.46,.06,0,.12,.02,.17,.02,.22,0,.43-.08,.61-.22l3.64-3c.06,.29,.09,.58,.09,.88Z"/><circle class="cls-1" cx="24.29" cy="17.54" r="4.82"/><path class="cls-1" d="M43.57,18.5h-8.2c-.53,0-.96-.43-.96-.96s.43-.96,.96-.96h8.2c.53,0,.96,.43,.96,.96s-.43,.96-.96,.96Z"/><path class="cls-1" d="M41.69,14.64h-6.32c-.53,0-.96-.43-.96-.96s.43-.96,.96-.96h6.32c.53,0,.96,.43,.96,.96s-.43,.96-.96,.96Z"/><path class="cls-1" d="M43.57,22.36h-8.2c-.53,0-.96-.43-.96-.96s.43-.96,.96-.96h8.2c.53,0,.96,.43,.96,.96s-.43,.96-.96,.96Z"/><path class="cls-1" d="M43.57,32.96h-8.2c-.53,0-.96-.43-.96-.96s.43-.96,.96-.96h8.2c.53,0,.96,.43,.96,.96s-.43,.96-.96,.96Z"/><path class="cls-1" d="M41.69,29.11h-6.32c-.53,0-.96-.43-.96-.96s.43-.96,.96-.96h6.32c.53,0,.96,.43,.96,.96s-.43,.96-.96,.96Z"/><path class="cls-1" d="M43.57,36.82h-8.2c-.53,0-.96-.43-.96-.96s.43-.96,.96-.96h8.2c.53,0,.96,.43,.96,.96s-.43,.96-.96,.96Z"/><path class="cls-1" d="M43.57,47.43h-8.2c-.53,0-.96-.43-.96-.96s.43-.96,.96-.96h8.2c.53,0,.96,.43,.96,.96s-.43,.96-.96,.96Z"/><path class="cls-1" d="M41.69,43.57h-6.32c-.53,0-.96-.43-.96-.96s.43-.96,.96-.96h6.32c.53,0,.96,.43,.96,.96s-.43,.96-.96,.96Z"/><path class="cls-1" d="M43.57,51.29h-8.2c-.53,0-.96-.43-.96-.96s.43-.96,.96-.96h8.2c.53,0,.96,.43,.96,.96s-.43,.96-.96,.96Z"/><path class="cls-1" d="M31.3,43.73l-2.28,1.86c-.12-.67-.39-1.31-.76-1.86l1.81-1.48c.4-.34,1.01-.28,1.35,.13,.34,.41,.28,1.02-.13,1.36Z"/></svg>