<?xml version="1.0" ?><svg xmlns="http://www.w3.org/2000/svg" id="Layer_1" data-name="Layer 1" viewBox="0 0 64 64"><defs><style>
      .cls-1 {
        fill: #ccc;
      }

      .cls-2 {
        fill: #d12431;
      }

      .cls-3 {
        fill: #369940;
      }
    </style></defs><path class="cls-2" d="M53.7,29.15v25.34c0,2.49-2.01,4.5-4.5,4.5H14.81c-2.49,0-4.5-2.01-4.5-4.5V29.15"/><path d="M17.27,29.15v6.97l12.16,12.17c1.41,1.41,3.72,1.41,5.13,0l12.16-12.17v-6.97"/><path class="cls-3" d="M46.73,8.1v28.03l-12.16,12.17c-1.41,1.41-3.72,1.41-5.13,0l-12.16-12.17V8.1c0-1.71,1.39-3.1,3.1-3.1h23.26c1.71,0,3.1,1.39,3.1,3.1Z"/><path class="cls-2" d="M32.01,33.8l-6.65-6.65c-3.43-4.03,.79-11.75,6.64-6.64,5.86-5.93,10.07,3.3,6.65,6.65l-6.64,6.64Z"/><polygon class="cls-1" points="10.3 29.15 17.27 22.18 17.27 36.12 10.3 29.15"/><polygon class="cls-1" points="53.7 29.15 46.73 36.12 46.73 22.18 53.7 29.15"/><path d="M54.62,29.77c-.05-.12-.12-.23-.22-.33l-6.68-6.68V9.1c0-2.26-1.84-4.1-4.1-4.1H20.37c-2.26,0-4.1,1.84-4.1,4.1v13.67l-6.68,6.68c-.09,.09-.17,.2-.22,.33-.05,.12-.08,.25-.08,.38v25.34c0,3.04,2.47,5.5,5.5,5.5H49.19c3.04,0,5.5-2.47,5.5-5.5V30.15c0-.13-.03-.26-.08-.38Zm-2.34,.38l-4.56,4.56v-9.11l4.56,4.56ZM18.27,9.1c0-1.16,.94-2.1,2.1-2.1h23.26c1.16,0,2.1,.94,2.1,2.1v27.61l-11.87,11.88c-.99,.99-2.73,.99-3.71,0l-11.87-11.88V9.1Zm-2,16.5v9.11l-4.56-4.56,4.56-4.56ZM49.19,59H14.81c-1.93,0-3.5-1.57-3.5-3.5v-22.93l5.26,5.26s0,0,0,0l12.16,12.17c.87,.87,2.03,1.35,3.27,1.35s2.4-.48,3.27-1.35l12.16-12.17s0,0,0,0l5.26-5.26v22.93c0,1.93-1.57,3.5-3.5,3.5Z"/><path d="M32.01,34.8c-.27,0-.52-.11-.71-.29l-6.65-6.65c-2.34-2.75-1.73-6.67,.27-8.65,1.49-1.47,4.07-2.17,7.02-.01,2.03-1.74,3.77-1.78,4.9-1.48,1.76,.47,3.21,2.12,3.78,4.3,.59,2.26,.1,4.51-1.28,5.87l-6.63,6.63c-.19,.19-.44,.29-.71,.29Zm-3.79-14.98c-.71,0-1.35,.27-1.9,.8-1.34,1.32-1.75,4.06-.21,5.87l5.89,5.89,5.93-5.93c.88-.86,1.17-2.37,.75-3.94-.39-1.47-1.31-2.59-2.36-2.88-1.36-.36-2.72,.65-3.62,1.57-.37,.38-.97,.4-1.37,.05-1.09-.96-2.16-1.44-3.12-1.44Z"/></svg>